Coordinates
version=1
nRows=15
nColumns=63
inDegrees=yes

Units are S.I. units (second, meters, Newtons, ...)
If the header above contains a line with 'inDegrees', this indicates whether rotational values are in degrees (yes) or radians (no).

endheader
time	pelvis_tilt	pelvis_list	pelvis_rotation	pelvis_tx	pelvis_ty	pelvis_tz	hip_flexion_r	hip_adduction_r	hip_rotation_r	knee_angle_r	knee_angle_r_beta	ankle_angle_r	subtalar_angle_r	mtp_angle_r	hip_flexion_l	hip_adduction_l	hip_rotation_l	knee_angle_l	knee_angle_l_beta	ankle_angle_l	subtalar_angle_l	mtp_angle_l	L5_S1_Flex_Ext	L5_S1_Lat_Bending	L5_S1_axial_rotation	L4_L5_Flex_Ext	L4_L5_Lat_Bending	L4_L5_axial_rotation	L3_L4_Flex_Ext	L3_L4_Lat_Bending	L3_L4_axial_rotation	L2_L3_Flex_Ext	L2_L3_Lat_Bending	L2_L3_axial_rotation	L1_L2_Flex_Ext	L1_L2_Lat_Bending	L1_L2_axial_rotation	L1_T12_Flex_Ext	L1_T12_Lat_Bending	L1_T12_axial_rotation	Abs_r3	Abs_r2	Abs_r1	Abs_t1	Abs_t2	neck_flexion	neck_bending	neck_rotation	arm_flex_r	arm_add_r	arm_rot_r	elbow_flex_r	pro_sup_r	wrist_flex_r	wrist_dev_r	arm_flex_l	arm_add_l	arm_rot_l	elbow_flex_l	pro_sup_l	wrist_flex_l	wrist_dev_l
0.000000	1.680352	-4.993831	96.177310	0.285668	0.729313	0.937506	3.371522	1.295372	16.905289	2.013996	0.035151	16.600822	-16.864477	0.000000	3.798036	-4.906579	19.318532	3.205068	0.055939	24.566990	-9.125404	0.000000	0.163231	0.166347	0.287007	0.303136	0.221242	0.304945	0.268172	0.404457	0.304945	0.186557	0.404457	0.251131	0.151576	0.339216	0.233193	0.093270	0.257672	0.215255	1.165943	1.881755	1.596248	0.000000	0.000000	25.720840	-4.442304	-3.445235	15.092463	-6.712261	65.719662	38.372995	86.935861	-0.206236	-0.667064	19.371281	-2.886159	76.265328	33.809686	90.340812	4.093653	6.833134
0.016667	1.953745	-4.997445	96.224991	0.285452	0.729678	0.937326	3.456351	1.524868	16.874701	2.173460	0.037934	16.418802	-16.859408	0.000000	3.718637	-5.155943	20.121784	3.137117	0.054753	24.711315	-10.081228	0.000000	0.160885	0.204818	0.256826	0.298780	0.272408	0.272877	0.264318	0.497994	0.272877	0.183876	0.497994	0.224722	0.149398	0.417665	0.208671	0.091930	0.317263	0.192619	1.149188	2.316941	1.428386	0.000000	0.000000	25.359230	-4.633319	-3.395185	15.395991	-6.624469	66.559366	37.904826	86.585439	-0.224892	-0.294931	18.704984	-2.739394	75.438729	33.221986	88.500864	3.545511	6.214319
0.033333	2.218846	-5.013388	96.320708	0.285164	0.730002	0.937297	3.557000	1.748273	16.777830	2.306743	0.040260	16.278870	-16.814647	0.000000	3.710645	-5.388825	20.724132	3.114714	0.054362	24.869902	-10.697801	0.000000	0.157141	0.241963	0.212052	0.291826	0.321811	0.225305	0.258167	0.588309	0.225305	0.179596	0.588309	0.185545	0.145921	0.493411	0.172292	0.089790	0.374801	0.159039	1.122442	2.737136	1.179367	0.000000	0.000000	25.105899	-4.807729	-3.327762	15.674956	-6.575073	67.266896	37.555914	86.302261	-0.234325	-0.038916	18.114364	-2.622531	74.433827	32.801179	86.887373	3.053214	5.795953
0.050000	2.473991	-5.039928	96.458399	0.284816	0.730287	0.937402	3.670543	1.964132	16.624670	2.415328	0.042155	16.178093	-16.736789	0.000000	3.765640	-5.604829	21.147122	3.132631	0.054675	25.039830	-11.012494	0.000000	0.152228	0.277521	0.155217	0.282703	0.369102	0.164919	0.250096	0.674764	0.164919	0.173982	0.674764	0.135815	0.141359	0.565920	0.126114	0.086983	0.429879	0.116413	1.087352	3.139369	0.863273	0.000000	0.000000	24.948585	-4.969063	-3.253768	15.929339	-6.560341	67.850805	37.315503	86.079711	-0.236365	0.113761	17.598660	-2.532560	73.291392	32.528932	85.494029	2.614558	5.554050
0.066667	2.717517	-5.075338	96.632006	0.284421	0.730535	0.937624	3.794052	2.170992	16.425211	2.500697	0.043645	16.113537	-16.632429	0.000000	3.875202	-5.803560	21.412299	3.185641	0.055600	25.218181	-11.062678	0.000000	0.146378	0.311227	0.088855	0.271839	0.413932	0.094408	0.240485	0.756718	0.094408	0.167296	0.756718	0.077748	0.135927	0.634655	0.072195	0.083641	0.482091	0.066641	1.045565	3.520665	0.494185	0.000000	0.000000	24.875024	-5.120851	-3.184001	16.159122	-6.576545	68.319646	37.172840	85.911176	-0.232845	0.175880	17.157110	-2.466471	72.052190	32.386910	84.314520	2.227341	5.464629
0.083333	2.947760	-5.117886	96.835469	0.283992	0.730746	0.937945	3.924603	2.367398	16.189444	2.564333	0.044756	16.082268	-16.508162	0.000000	4.030913	-5.984622	21.541210	3.268519	0.057046	25.402035	-10.885725	0.000000	0.139821	0.342820	0.015496	0.259662	0.455951	0.016465	0.229712	0.833533	0.016465	0.159802	0.833533	0.013559	0.129838	0.699079	0.012591	0.079894	0.531029	0.011622	0.998729	3.878052	0.086185	0.000000	0.000000	24.872954	-5.266622	-3.129262	16.364286	-6.619955	68.681971	37.117172	85.790041	-0.225596	0.160222	16.788951	-2.421257	70.756989	32.356779	83.342535	1.889358	5.503705
0.100000	3.163057	-5.165842	97.062728	0.283543	0.730923	0.938347	4.059268	2.551899	15.927362	2.607718	0.045513	16.081352	-16.370582	0.000000	4.224352	-6.147622	21.555399	3.376036	0.058923	25.588474	-10.519005	0.000000	0.132788	0.372037	-0.062327	0.246600	0.494809	-0.066223	0.218157	0.904571	-0.066223	0.151763	0.904571	-0.054536	0.123307	0.758658	-0.050641	0.075875	0.576285	-0.046746	0.948489	4.208557	-0.346646	0.000000	0.000000	24.930112	-5.409905	-3.100353	16.544814	-6.686841	68.946333	37.137744	85.709690	-0.216451	0.079565	16.493421	-2.393906	69.446557	32.420204	82.571765	1.598406	5.647295
0.116667	3.361744	-5.217478	97.307725	0.283084	0.731066	0.938814	4.195121	2.723039	15.648955	2.632336	0.045943	16.107855	-16.226285	0.000000	4.447100	-6.292163	21.476414	3.502967	0.061138	25.774578	-9.999890	0.000000	0.125508	0.398615	-0.142083	0.233081	0.530157	-0.150964	0.206198	0.969192	-0.150964	0.143443	0.969192	-0.124323	0.116547	0.812855	-0.115443	0.071715	0.617454	-0.106563	0.896493	4.509208	-0.790226	0.000000	0.000000	25.034236	-5.554231	-3.108074	16.700686	-6.773475	69.121285	37.223803	85.663510	-0.207242	-0.053309	16.269760	-2.381411	68.161661	32.558850	81.995899	1.352281	5.871416
0.133333	3.542157	-5.271062	97.564398	0.282631	0.731176	0.939326	4.329237	2.879365	15.364215	2.639670	0.046071	16.158844	-16.081865	0.000000	4.690737	-6.417852	21.325800	3.644084	0.063601	25.957429	-9.365751	0.000000	0.118214	0.422290	-0.221240	0.219535	0.561646	-0.235068	0.194213	1.026756	-0.235068	0.135106	1.026756	-0.193585	0.109773	0.861134	-0.179758	0.067547	0.654128	-0.165930	0.844388	4.777031	-1.230472	0.000000	0.000000	25.173063	-5.703128	-3.163225	16.831883	-6.876127	69.215380	37.364595	85.644886	-0.199801	-0.225620	16.117203	-2.380760	66.943069	32.754384	81.608624	1.148781	6.152084
0.150000	3.702633	-5.324866	97.826689	0.282194	0.731255	0.939867	4.458688	3.019424	15.083134	2.631200	0.045923	16.231384	-15.943917	0.000000	4.946844	-6.524291	21.125102	3.794160	0.066221	26.134107	-8.653959	0.000000	0.111134	0.442801	-0.297266	0.206388	0.588925	-0.315845	0.182583	1.076626	-0.315845	0.127015	1.076626	-0.260108	0.103199	0.902960	-0.241529	0.063502	0.685899	-0.222950	0.793821	5.009054	-1.653305	0.000000	0.000000	25.334330	-5.860126	-3.276606	16.938389	-6.991068	69.237169	37.549367	85.647202	-0.195959	-0.424590	16.034991	-2.388946	65.831549	32.988471	81.403632	0.985701	6.465316
0.166667	3.841509	-5.377158	98.088539	0.281788	0.731305	0.940419	4.580550	3.141762	14.815702	2.608412	0.045525	16.322541	-15.819036	0.000000	5.207001	-6.611088	20.895866	3.947970	0.068905	26.301693	-7.901885	0.000000	0.104501	0.459884	-0.367629	0.194069	0.611646	-0.390606	0.171684	1.118163	-0.390606	0.119434	1.118163	-0.321675	0.097040	0.937796	-0.298698	0.059712	0.712361	-0.275722	0.746439	5.202304	-2.044642	0.000000	0.000000	25.505774	-6.028754	-3.459019	17.020183	-7.114567	69.195207	37.767364	85.663845	-0.197549	-0.637438	16.022360	-2.402958	64.867868	33.242776	81.374611	0.860838	6.787127
0.183333	3.938624	-5.423896	98.341958	0.281486	0.731305	0.940937	4.684452	3.229473	14.611238	2.571331	0.044878	16.407511	-15.768278	0.000000	5.457480	-6.663949	20.612228	4.100771	0.071572	26.449704	-7.128687	0.000000	0.099926	0.469676	-0.414548	0.185573	0.624669	-0.440457	0.164169	1.141971	-0.440457	0.114206	1.141971	-0.362729	0.092791	0.957764	-0.336820	0.057098	0.727528	-0.310911	0.713763	5.313070	-2.305590	0.000000	0.000000	25.628664	-6.283157	-3.910567	17.087860	-7.238612	69.151801	37.983284	85.657099	-0.252695	-0.851286	16.071327	-2.410546	64.193707	33.428371	81.469493	0.812451	7.029584
0.200000	4.001838	-5.462732	98.563900	0.281278	0.731284	0.941397	4.768068	3.288484	14.481717	2.513389	0.043867	16.532887	-15.755491	0.000000	5.679594	-6.690699	20.367524	4.237890	0.073965	26.607823	-6.400617	0.000000	0.096855	0.473631	-0.442783	0.179870	0.629929	-0.470457	0.159124	1.151586	-0.470457	0.110696	1.151586	-0.387435	0.089940	0.965828	-0.359761	0.055343	0.733654	-0.332088	0.691829	5.357807	-2.462628	0.000000	0.000000	25.718362	-6.575795	-4.551088	17.100624	-7.362460	68.998696	38.206602	85.656988	-0.316252	-1.043892	16.265309	-2.418906	64.014547	33.587545	81.773154	0.790602	7.178568
0.216667	4.047533	-5.486584	98.772309	0.281101	0.731247	0.941816	4.827206	3.334024	14.377674	2.443813	0.042653	16.686033	-15.754835	0.000000	5.864480	-6.702114	20.332838	4.349637	0.075915	26.717451	-5.972608	0.000000	0.094552	0.475373	-0.461002	0.175593	0.632246	-0.489815	0.155340	1.155821	-0.489815	0.108064	1.155821	-0.403377	0.087801	0.969380	-0.374564	0.054027	0.736352	-0.345752	0.675376	5.377510	-2.563956	0.000000	0.000000	25.765463	-6.881485	-5.235350	17.082603	-7.499122	68.792331	38.452644	85.653152	-0.357571	-1.156395	16.554492	-2.414613	64.215256	33.705341	82.309150	0.731084	7.222782
0.233333	4.064013	-5.495803	98.927273	0.281024	0.731194	0.942180	4.861936	3.357250	14.369874	2.368180	0.041333	16.847713	-15.803431	0.000000	5.997197	-6.692899	20.458931	4.425553	0.077240	26.782909	-5.824812	0.000000	0.092638	0.473187	-0.461735	0.172038	0.629338	-0.490593	0.152195	1.150506	-0.490593	0.105876	1.150506	-0.404018	0.086024	0.964922	-0.375159	0.052933	0.732966	-0.346301	0.661704	5.352782	-2.568030	0.000000	0.000000	25.768692	-7.182718	-5.957318	17.029404	-7.628817	68.525880	38.692821	85.632730	-0.385042	-1.203115	16.933714	-2.402288	64.791173	33.774422	83.060567	0.669295	7.181786
